Coordinates
version=1
nRows=7
nColumns=40
inDegrees=yes

Units are S.I. units (second, meters, Newtons, ...)
Angles are in degrees.

endheader
time	pelvis_tilt	pelvis_list	pelvis_rotation	pelvis_tx	pelvis_ty	pelvis_tz	hip_flexion_r	hip_adduction_r	hip_rotation_r	knee_angle_r	knee_angle_r_beta	ankle_angle_r	subtalar_angle_r	mtp_angle_r	hip_flexion_l	hip_adduction_l	hip_rotation_l	knee_angle_l	knee_angle_l_beta	ankle_angle_l	subtalar_angle_l	mtp_angle_l	lumbar_extension	lumbar_bending	lumbar_rotation	arm_flex_r	arm_add_r	arm_rot_r	elbow_flex_r	pro_sup_r	wrist_flex_r	wrist_dev_r	arm_flex_l	arm_add_l	arm_rot_l	elbow_flex_l	pro_sup_l	wrist_flex_l	wrist_dev_l
      1.76000000	     -5.32039747	     -3.21536074	      1.08108584	      0.94067646	      0.93215810	      0.44654983	     26.08474021	     -6.67865041	     -5.24141848	     68.12146857	     68.12146857	      1.89007899	    -14.66463901	     -0.68593857	     14.69114009	     -2.63865613	     -7.63730776	     20.56913223	     20.56913223	     13.94390300	     -8.23298943	      2.56508011	     -7.89486352	      5.88789938	      3.26073280	      6.31455674	    -12.19873708	     -9.25044877	     29.53226703	     45.78495673	      0.00000000	      0.00000000	     11.56052020	    -14.18218906	     -3.12005894	     51.48517034	     45.99092150	      0.00000000	      0.00000000
      1.77185714	     -5.32151650	     -3.19590006	      0.75751245	      0.93992402	      0.93299880	      0.44647741	     27.59165931	     -6.63097694	     -5.02440506	     67.95851237	     67.95851237	      2.00078284	    -14.80873887	     -0.70536150	     13.73460625	     -2.55079634	     -7.71913706	     19.74372293	     19.74372293	     14.07268174	     -8.33813728	      2.77452535	     -7.96234243	      5.91602930	      3.48138495	      4.54331472	    -12.15339779	     -9.11955327	     28.21764724	     45.82516302	      0.00000000	      0.00000000	     12.83383697	    -14.30481579	     -3.44857229	     52.51134164	     46.05175595	      0.00000000	      0.00000000
      1.78371429	     -5.30758168	     -3.20830813	      0.47866198	      0.93919306	      0.93382154	      0.44647999	     28.96515559	     -6.50856384	     -4.85193213	     67.60089506	     67.60089506	      2.12040048	    -15.04960029	     -0.62848967	     12.72225303	     -2.49075622	     -7.78695269	     18.81685062	     18.81685062	     14.17151386	     -8.32248124	      2.95800629	     -8.10108351	      5.97794774	      3.73348274	      2.69845267	    -12.04827799	     -8.99670714	     26.94377848	     45.86271985	      0.00000000	      0.00000000	     14.04493900	    -14.49927647	     -3.84358202	     53.81153845	     46.11942752	      0.00000000	      0.00000000
      1.79557143	     -5.19631151	     -3.26597964	      0.12064279	      0.93847534	      0.93459588	      0.44662351	     30.16017749	     -6.31782246	     -4.69578567	     67.05976934	     67.05976934	      2.16938229	    -15.15184396	     -0.45636102	     11.68477834	     -2.49649390	     -7.89974071	     18.05597601	     18.05597601	     14.31538899	     -8.45874204	      3.06385585	     -8.30722370	      6.00372388	      3.90398128	      1.09992140	    -12.03384148	     -8.89845783	     25.77435815	     45.90115415	      0.00000000	      0.00000000	     15.10422099	    -14.58333522	     -4.24109186	     55.27146774	     46.18802091	      0.00000000	      0.00000000
      1.80742857	     -5.11503318	     -3.31878129	     -0.22109318	      0.93770995	      0.93520084	      0.44680422	     31.27628735	     -6.11973684	     -4.55777789	     66.26176309	     66.26176309	      2.26491865	    -15.25628857	     -0.14704931	     10.68882912	     -2.48717218	     -7.97892809	     17.27965540	     17.27965540	     14.40160273	     -8.62666700	      3.11668757	     -8.52750053	      6.06797216	      4.08829762	     -0.46369553	    -11.99071860	     -8.80255583	     24.56638796	     45.94650555	      0.00000000	      0.00000000	     16.03105066	    -14.76133326	     -4.78370133	     57.11647913	     46.27536330	      0.00000000	      0.00000000
      1.81928571	     -5.17982071	     -3.42357321	     -0.46997066	      0.93674930	      0.93534744	      0.44706023	     32.43115638	     -5.95415785	     -4.63564672	     65.19200375	     65.19200375	      2.35509549	    -15.24385334	      0.02130960	     10.07115004	     -2.58136711	     -8.06752756	     16.87611943	     16.87611943	     14.62708612	     -8.64098373	      3.08969751	     -8.56537351	      6.23831910	      3.72616706	     -1.81623723	    -11.87571340	     -8.78987632	     23.95871713	     45.96330114	      0.00000000	      0.00000000	     16.90472602	    -15.37962193	     -5.13106875	     57.89278037	     46.32305839	      0.00000000	      0.00000000
      1.83114286	     -5.10687313	     -3.51382915	     -0.85256502	      0.93591506	      0.93577349	      0.44756006	     33.28815875	     -5.58627151	     -4.47218591	     63.70427256	     63.70427256	      2.37936989	    -15.57813651	      0.51418754	      9.01400950	     -2.61378278	     -8.20741614	     15.94719785	     15.94719785	     14.67992626	     -8.67993405	      3.13580429	     -8.83215917	      6.30970854	      4.30368903	     -3.50747093	    -11.88872468	     -8.73545059	     22.93147395	     46.00245364	      0.00000000	      0.00000000	     17.76080013	    -15.14049154	     -5.68485655	     60.36070705	     46.41620629	      0.00000000	      0.00000000
